<svg width="13" height="14" viewBox="0 0 13 14" fill="none" xmlns="http://www.w3.org/2000/svg">
<g id="Arrow / Arrow_Reload_02">
<path id="Vector" d="M7.5835 9.33334H10.2918V12.25" stroke="#DBDBDB" stroke-width="2" stroke-linecap="round" stroke-linejoin="round"/>
<path id="Vector_2" d="M2.48242 8.74817C2.78613 9.55769 3.29461 10.2592 3.95009 10.773C4.60557 11.2868 5.38174 11.5923 6.1904 11.6547C6.99905 11.7172 7.80775 11.534 8.52457 11.1261C9.2414 10.7183 9.8376 10.102 10.2454 9.34743" stroke="#DBDBDB" stroke-width="2" stroke-linecap="round" stroke-linejoin="round"/>
<path id="Vector_3" d="M5.41683 4.66667H2.7085V1.75" stroke="#DBDBDB" stroke-width="2" stroke-linecap="round" stroke-linejoin="round"/>
<path id="Vector_4" d="M10.5179 5.25185C10.2142 4.44233 9.70568 3.7408 9.0502 3.22699C8.39472 2.71319 7.61855 2.40771 6.8099 2.34529C6.00124 2.28286 5.19254 2.466 4.47572 2.87387C3.7589 3.28174 3.1627 3.89799 2.75488 4.65259" stroke="#DBDBDB" stroke-width="2" stroke-linecap="round" stroke-linejoin="round"/>
</g>
</svg>
